Coordinates
version=1
nRows=29
nColumns=24
inDegrees=yes

Units are S.I. units (second, meters, Newtons, ...)
Angles are in degrees.

endheader
time	pelvis_tilt	pelvis_list	pelvis_rotation	pelvis_tx	pelvis_ty	pelvis_tz	hip_flexion_r	hip_adduction_r	hip_rotation_r	knee_angle_r	ankle_angle_r	subtalar_angle_r	mtp_angle_r	hip_flexion_l	hip_adduction_l	hip_rotation_l	knee_angle_l	ankle_angle_l	subtalar_angle_l	mtp_angle_l	lumbar_extension	lumbar_bending	lumbar_rotation
      1.10816667	      0.14206481	      2.30616675	      0.29716418	     -0.11095763	      0.97475256	      0.31411353	    -19.59541636	      0.32555939	     -4.17069238	     -3.65782099	     20.36119122	     -1.02002784	      0.56447612	     22.53630873	      3.28523384	      2.41900320	      3.24214623	     -5.00609682	     -9.35459321	      1.46887079	    -13.95100032	      1.84001843	      8.59774703
      1.11233333	      0.18442529	      2.48984902	      0.30836508	     -0.10510313	      0.97408716	      0.31351128	    -19.71320194	      0.06562032	     -4.49353326	     -4.29633327	     20.58296182	     -0.56952086	      0.65003018	     22.55123819	      3.57045046	      2.56026699	      2.86028743	     -5.26084225	     -9.63166585	      1.55680973	    -13.99488397	      1.62863434	      8.58029099
      1.11650000	      0.21200842	      2.69900368	      0.31280005	     -0.09919883	      0.97345356	      0.31292698	    -19.81116286	     -0.22347017	     -4.76398350	     -4.94840799	     20.78326101	     -0.19917871	      0.74697120	     22.58273779	      3.87839940	      2.70235598	      2.41400886	     -5.56655946	     -9.92622635	      1.64943532	    -14.00911427	      1.36782993	      8.54932200
      1.12066667	      0.23235889	      2.92482529	      0.32221598	     -0.09326090	      0.97285403	      0.31232301	    -19.89078043	     -0.53125198	     -5.02649346	     -5.62740634	     20.95595161	      0.15115456	      0.85558318	     22.63345433	      4.20649946	      2.84719083	      1.89025514	     -5.92274511	    -10.25830257	      1.74385235	    -14.02127750	      1.09258003	      8.50639957
      1.12483333	      0.24902279	      3.15671035	      0.33409405	     -0.08730458	      0.97229760	      0.31170365	    -19.95002281	     -0.84796645	     -5.27809857	     -6.34090836	     21.09344791	      0.46746916	      0.97864025	     22.69972348	      4.54286195	      2.98721187	      1.29647301	     -6.32356317	    -10.62280339	      1.83941964	    -14.01735682	      0.80600900	      8.45802340
      1.12900000	      0.26114602	      3.39702119	      0.34889728	     -0.08132578	      0.97177450	      0.31106859	    -19.98828021	     -1.17564620	     -5.52500802	     -7.09177483	     21.19570576	      0.77211832	      1.12851738	     22.78031133	      4.88987851	      3.13316441	      0.64388102	     -6.77164836	    -11.03817506	      1.94363626	    -14.01331664	      0.51335286	      8.39958512
      1.13316667	      0.26261999	      3.64358217	      0.36530957	     -0.07531984	      0.97128776	      0.31042570	    -20.00883885	     -1.50977184	     -5.73803240	     -7.85458871	     21.25055058	      1.01512633	      1.29336649	     22.88483984	      5.24445178	      3.25911679	     -0.07041383	     -7.25231650	    -11.46485150	      2.04303819	    -13.99941933	      0.21683086	      8.33457097
      1.13733333	      0.26588871	      3.89470465	      0.38770912	     -0.06929121	      0.97084291	      0.30975528	    -20.00879394	     -1.85159810	     -5.96962805	     -8.66771198	     21.26162897	      1.25187462	      1.52694671	     22.99179698	      5.60767252	      3.40934935	     -0.82661686	     -7.73917704	    -11.95234058	      2.16670050	    -13.97936458	     -0.09477665	      8.26612197
      1.14150000	      0.24696087	      4.15341449	      0.40533253	     -0.06324866	      0.97042514	      0.30909859	    -19.98070681	     -2.19966247	     -6.12295150	     -9.48543647	     21.23018986	      1.40850703	      1.74682517	     23.13834170	      5.97459692	      3.49949930	     -1.63528713	     -8.26777853	    -12.40419859	      2.25940864	    -13.93865396	     -0.40313513	      8.18245502
      1.14566667	      0.23769000	      4.40483634	      0.43176865	     -0.05718851	      0.97006322	      0.30842104	    -19.94456514	     -2.53888440	     -6.28588473	    -10.34055408	     21.13902099	      1.53736183	      1.99328182	     23.28115513	      6.33861657	      3.59987630	     -2.48148470	     -8.78392640	    -12.89885422	      2.34308219	    -13.89478676	     -0.71153901	      8.09861587
      1.14983333	      0.23645868	      4.66936556	      0.46848794	     -0.05109849	      0.96974790	      0.30770246	    -19.90575033	     -2.89287829	     -6.46489452	    -11.22186574	     20.98626807	      1.67790759	      2.45323220	     23.41205766	      6.72489877	      3.76200220	     -3.34897985	     -9.23951863	    -13.48042065	      2.46998857	    -13.87167053	     -1.03354928	      8.01740691
      1.15400000	      0.19386244	      4.91115029	      0.48170235	     -0.04501718	      0.96945311	      0.30704258	    -19.80073016	     -3.22342983	     -6.52079585	    -12.12880887	     20.78002109	      1.64926266	      2.77187707	     23.60874178	      7.06962160	      3.78760111	     -4.26275822	     -9.74804300	    -13.90262728	      2.52764343	    -13.79467137	     -1.32134011	      7.91762950
      1.15816667	      0.16647094	      5.16829076	      0.50880496	     -0.03890481	      0.96921844	      0.30634091	    -19.69577349	     -3.56931591	     -6.61125563	    -13.07212665	     20.51717581	      1.64390273	      3.13972585	     23.78009536	      7.43966923	      3.87091876	     -5.18154404	    -10.18589040	    -14.40053704	      2.57139063	    -13.73343674	     -1.63517832	      7.81780327
      1.16233333	      0.13508937	      5.41657451	      0.53301816	     -0.03278510	      0.96902285	      0.30562588	    -19.56676308	     -3.90836866	     -6.67727697	    -14.04621329	     20.18810174	      1.59819763	      3.62284281	     23.95940838	      7.80177208	      3.95834219	     -6.12222568	    -10.57323762	    -14.91516533	      2.60070417	    -13.66779377	     -1.93115460	      7.71998698
      1.16650000	      0.24667630	      5.73093368	      0.52803408	     -0.02656984	      0.96909125	      0.30493432	    -19.60667921	     -4.32259520	     -6.76739088	    -14.97207810	     19.67033465	      1.53208427	      9.06633569	     23.93065804	      8.22641471	      4.05068496	     -6.96635443	    -10.98740212	    -15.56745730	      2.68702258	    -13.77809927	     -2.31786504	      7.61033639
      1.17066667	      0.13008657	      5.91550171	      0.58144929	     -0.02047621	      0.96888186	      0.30421222	    -19.33824409	     -4.57625040	     -6.73315642	    -16.01546528	     19.19910054	      1.26466735	      9.18174446	     24.24969171	      8.52600612	      4.07919373	     -8.04196995	    -11.08442606	    -15.78249003	      2.66862450	    -13.60524297	     -2.54101886	      7.51789048
      1.17483333	      0.10782092	      6.15123190	      0.59285380	     -0.01433003	      0.96886316	      0.30351601	    -19.14878248	     -4.90012233	     -6.71348252	    -17.09284930	     18.66268387	      1.06823074	      9.34866322	     24.41510093	      8.86849943	      4.11221145	     -9.01486699	    -11.23094497	    -16.14360891	      2.63198953	    -13.54832358	     -2.82957895	      7.41882071
      1.17900000	      0.08414856	      6.38522700	      0.59944870	     -0.00817155	      0.96889080	      0.30280501	    -18.92740251	     -5.22777976	     -6.68860288	    -18.21717969	     18.06984205	      0.86865755	      9.59634253	     24.56865288	      9.21062719	      4.16281780	     -9.97312121	    -11.32536639	    -16.53476740	      2.57266130	    -13.48369342	     -3.11063586	      7.32039049
      1.18316667	      0.06102899	      6.61202235	      0.60121972	     -0.00201222	      0.96896641	      0.30208515	    -18.67469750	     -5.55167377	     -6.64818813	    -19.38721491	     17.40567891	      0.64152425	      9.97143266	     24.71298662	      9.54568712	      4.20845689	    -10.92432939	    -11.34603302	    -16.90097982	      2.47840366	    -13.41819809	     -3.37657813	      7.22318773
      1.18733333	      0.11222936	      6.83851592	      0.59488152	      0.00417102	      0.96920273	      0.30137381	    -18.50019434	     -5.87235305	     -6.60051800	    -20.51923144	     16.51726944	      0.29429877	     16.20814512	     24.76737549	      9.88198152	      4.24684680	    -11.87474990	    -11.21227429	    -17.21192710	      0.88860498	    -13.45368115	     -3.65926337	      7.17819273
      1.19150000	      0.16115535	      7.08314042	      0.58171317	      0.01034814	      0.96946193	      0.30066408	    -18.27241148	     -6.22130354	     -6.57048112	    -21.75823417	     15.72670004	      0.07577089	     16.23630420	     24.80814483	     10.23358021	      4.27294359	    -12.79423682	    -11.03666437	    -17.49250561	      0.88893413	    -13.48399566	     -3.95665398	      7.05283639
      1.19566667	      0.14974562	      7.29170575	      0.55363867	      0.01648536	      0.96968832	      0.29995167	    -17.91383025	     -6.54542442	     -6.50400262	    -23.09559619	     14.86683341	     -0.20394239	     16.35995561	     24.90039339	     10.54341250	      4.29774938	    -13.68547961	    -10.85039731	    -17.76453026	      0.86373575	    -13.41892939	     -4.18272100	      6.94872603
      1.19983333	      0.25127965	      7.51254755	      0.51910519	      0.02264243	      0.97010108	      0.29924128	    -17.67219128	     -6.88331377	     -6.46904026	    -24.41720858	     13.91771450	     -0.42840962	     16.42021707	     24.85673368	     10.86918647	      4.30618379	    -14.56186347	    -10.54369372	    -18.04320345	      0.85255455	    -13.49951641	     -4.44228159	      6.86233714
      1.20400000	      0.18964106	      7.67772664	      0.47288469	      0.02871857	      0.97033659	      0.29857699	    -17.17980367	     -7.16268271	     -6.30599152	    -25.84034426	     12.89519765	     -0.81884434	     16.83801182	     25.00185103	     11.12258590	      4.28048327	    -15.46266989	    -10.20484356	    -18.20520061	      0.74362630	    -13.39512573	     -4.63516682	      6.79690133
      1.20816667	      0.32613630	      7.90055719	      0.39768807	      0.03485877	      0.97088046	      0.29795023	    -16.90143782	     -7.51670339	     -6.23263900	    -27.23044624	     11.70543856	     -1.19897641	     21.95060387	     24.88862523	     11.42192897	      4.18638367	    -16.28192260	     -9.63218208	    -18.12071945	     -0.65539034	    -13.52120282	     -4.90167076	      6.74303451
      1.21233333	      0.42486118	      8.11656121	      0.34558649	      0.04095696	      0.97138263	      0.29721615	    -16.53381189	     -7.87968158	     -6.21888408	    -28.71471382	     10.57974318	     -1.39480384	     21.96718430	     24.77706887	     11.74872149	      4.24303801	    -17.02102529	     -9.24600496	    -18.46407483	     -0.65225573	    -13.59189949	     -5.13223756	      6.64094872
      1.21650000	      0.41790343	      8.30962645	      0.26969648	      0.04699897	      0.97179662	      0.29655562	    -15.99077374	     -8.21825593	     -6.09622319	    -30.26879908	      9.35897279	     -1.77841224	     22.09208304	     24.76473440	     12.02943426	      4.25527268	    -17.71848505	     -8.87418159	    -18.66149454	     -0.68055221	    -13.53265379	     -5.34103247	      6.54954818
      1.22066667	      0.46810516	      8.46193010	      0.18419531	      0.05299550	      0.97230136	      0.29594809	    -15.48746192	     -8.50930821	     -5.94773860	    -31.81739039	      8.06818739	     -2.14151151	     22.37734487	     24.70173179	     12.25726713	      4.19510737	    -18.45069700	     -8.32622309	    -18.73986347	     -0.75541731	    -13.55552869	     -5.53485791	      6.49118625
      1.22483333	      0.58531726	      8.65422464	      0.08136751	      0.05898543	      0.97289094	      0.29535357	    -15.02376939	     -8.86566973	     -5.86452660	    -33.40619698	      6.76141017	     -2.43702539	     24.85224143	     24.54071200	     12.51295992	      4.07064840	    -19.12675210	     -7.61507922	    -18.57180841	     -1.50849431	    -13.66133267	     -5.75358725	      6.44200699
